<svg width="48" height="48" viewBox="0 0 48 48" fill="none" xmlns="http://www.w3.org/2000/svg">
<path d="M46.125 20.1C44.325 9.525 35.1 1.5 24 1.5C12.9 1.5 3.675 9.525 1.875 20.1L24 9L46.125 20.1Z" fill="#307351"/>
<path d="M1.875 27.9C3.675 38.475 12.9 46.5 24 46.5C35.1 46.5 44.325 38.475 46.125 27.9L24 39L1.875 27.9Z" fill="#307351"/>
<path d="M24 9L1.875 20.1C1.65 21.375 1.5 22.65 1.5 24C1.5 25.35 1.65 26.625 1.875 27.9L24 39L46.125 27.9C46.35 26.625 46.5 25.35 46.5 24C46.5 22.65 46.35 21.375 46.125 20.1L24 9Z" fill="#FFE62E"/>
<path d="M19.5 21.3C17.1 21.3 14.85 21.825 12.825 22.725C12.75 23.175 12.75 23.55 12.75 24C12.75 30.225 17.775 35.25 24 35.25C28.2 35.25 31.875 32.925 33.825 29.55C31.05 24.675 25.65 21.3 19.5 21.3Z" fill="#428BC1"/>
<path d="M35.1 25.8C35.175 25.2 35.25 24.6 35.25 24C35.25 17.775 30.225 12.75 24 12.75C19.575 12.75 15.75 15.3 13.875 19.05C15.675 18.525 17.55 18.225 19.5 18.225C25.875 18.225 31.5 21.225 35.1 25.8Z" fill="#428BC1"/>
<path d="M19.4999 18.225C17.55 18.225 15.675 18.525 13.875 19.05C13.35 20.175 12.975 21.375 12.825 22.725C14.85 21.825 17.1 21.3 19.4999 21.3C25.6499 21.3 31.0499 24.6 33.8249 29.475C34.4999 28.35 34.8749 27.075 35.0999 25.8C31.4999 21.225 25.8749 18.225 19.4999 18.225Z" fill="white"/>
<path d="M16.5 24.75C16.9142 24.75 17.25 24.4142 17.25 24C17.25 23.5858 16.9142 23.25 16.5 23.25C16.0858 23.25 15.75 23.5858 15.75 24C15.75 24.4142 16.0858 24.75 16.5 24.75Z" fill="white"/>
<path d="M19.5 29.25C19.9142 29.25 20.25 28.9142 20.25 28.5C20.25 28.0858 19.9142 27.75 19.5 27.75C19.0858 27.75 18.75 28.0858 18.75 28.5C18.75 28.9142 19.0858 29.25 19.5 29.25Z" fill="white"/>
<path d="M24 29.25C24.4142 29.25 24.75 28.9142 24.75 28.5C24.75 28.0858 24.4142 27.75 24 27.75C23.5858 27.75 23.25 28.0858 23.25 28.5C23.25 28.9142 23.5858 29.25 24 29.25Z" fill="white"/>
<path d="M24 32.25C24.4142 32.25 24.75 31.9142 24.75 31.5C24.75 31.0858 24.4142 30.75 24 30.75C23.5858 30.75 23.25 31.0858 23.25 31.5C23.25 31.9142 23.5858 32.25 24 32.25Z" fill="white"/>
<path d="M30 29.25C30.4142 29.25 30.75 28.9142 30.75 28.5C30.75 28.0858 30.4142 27.75 30 27.75C29.5858 27.75 29.25 28.0858 29.25 28.5C29.25 28.9142 29.5858 29.25 30 29.25Z" fill="white"/>
<path d="M30 32.25C30.4142 32.25 30.75 31.9142 30.75 31.5C30.75 31.0858 30.4142 30.75 30 30.75C29.5858 30.75 29.25 31.0858 29.25 31.5C29.25 31.9142 29.5858 32.25 30 32.25Z" fill="white"/>
<path d="M27 30.75C27.4142 30.75 27.75 30.4142 27.75 30C27.75 29.5858 27.4142 29.25 27 29.25C26.5858 29.25 26.25 29.5858 26.25 30C26.25 30.4142 26.5858 30.75 27 30.75Z" fill="white"/>
<path d="M16.5 27.75C16.9142 27.75 17.25 27.4142 17.25 27C17.25 26.5858 16.9142 26.25 16.5 26.25C16.0858 26.25 15.75 26.5858 15.75 27C15.75 27.4142 16.0858 27.75 16.5 27.75Z" fill="white"/>
</svg>
