<svg width="110" height="107" viewBox="0 0 110 107" fill="none" xmlns="http://www.w3.org/2000/svg">
<path d="M54.6387 4.57107e-06C24.4507 -0.0122025 0 24.4263 0 54.5898C0 78.4424 15.2954 98.7183 36.5967 106.165C39.4653 106.885 39.0259 104.846 39.0259 103.455V93.9941C22.4609 95.9351 21.7896 84.9731 20.6787 83.1421C18.4326 79.3091 13.1226 78.3325 14.7095 76.5015C18.4814 74.5605 22.3267 76.9898 26.7822 83.5693C30.0049 88.3423 36.2915 87.5366 39.4775 86.7432C40.1733 83.8745 41.6626 81.311 43.7134 79.3213C26.5503 76.2451 19.397 65.7715 19.397 53.3203C19.397 47.2778 21.3867 41.7236 25.293 37.2437C22.8027 29.8584 25.5249 23.5352 25.8911 22.5952C32.9834 21.9605 40.3564 27.6733 40.9302 28.125C44.9585 27.0386 49.5605 26.4648 54.7119 26.4648C59.8877 26.4648 64.502 27.063 68.5669 28.1616C69.9463 27.1118 76.7822 22.2046 83.374 22.8027C83.728 23.7427 86.3892 29.9194 84.0454 37.207C88.0005 41.6992 90.0147 47.3023 90.0147 53.3569C90.0147 65.8325 82.8125 76.3184 65.6006 79.3457C67.0748 80.7955 68.2454 82.5246 69.0439 84.4318C69.8425 86.3391 70.253 88.3864 70.2515 90.4541V104.187C70.3491 105.286 70.2515 106.372 72.0825 106.372C93.7012 99.0845 109.265 78.6621 109.265 54.6021C109.265 24.4263 84.8022 4.57107e-06 54.6387 4.57107e-06V4.57107e-06Z" fill="#fff"/>
</svg>
