<svg width="98" height="98" viewBox="0 0 98 98" fill="none" xmlns="http://www.w3.org/2000/svg">
<path d="M48.7829 32.5232C39.823 32.5232 32.511 39.8352 32.511 48.7951C32.511 57.7551 39.823 65.0671 48.7829 65.0671C57.7429 65.0671 65.0549 57.7551 65.0549 48.7951C65.0549 39.8352 57.7429 32.5232 48.7829 32.5232ZM97.5866 48.7951C97.5866 42.0569 97.6477 35.3796 97.2693 28.6535C96.8908 20.841 95.1086 13.9074 89.3957 8.19455C83.6706 2.46945 76.7492 0.699432 68.9367 0.321014C62.1985 -0.0574044 55.5212 0.00363091 48.7951 0.00363091C42.0568 0.00363091 35.3796 -0.0574044 28.6535 0.321014C20.841 0.699432 13.9074 2.48166 8.19455 8.19455C2.46945 13.9196 0.699431 20.841 0.321014 28.6535C-0.0574044 35.3918 0.00363091 42.0691 0.00363091 48.7951C0.00363091 55.5212 -0.0574044 62.2107 0.321014 68.9367C0.699431 76.7492 2.48166 83.6828 8.19455 89.3957C13.9196 95.1208 20.841 96.8908 28.6535 97.2693C35.3918 97.6477 42.0691 97.5866 48.7951 97.5866C55.5334 97.5866 62.2107 97.6477 68.9367 97.2693C76.7492 96.8908 83.6828 95.1086 89.3957 89.3957C95.1208 83.6706 96.8908 76.7492 97.2693 68.9367C97.6599 62.2107 97.5866 55.5334 97.5866 48.7951V48.7951ZM48.7829 73.8318C34.9279 73.8318 23.7463 62.6501 23.7463 48.7951C23.7463 34.9402 34.9279 23.7585 48.7829 23.7585C62.6379 23.7585 73.8195 34.9402 73.8195 48.7951C73.8195 62.6501 62.6379 73.8318 48.7829 73.8318ZM74.8449 28.5803C71.6101 28.5803 68.9978 25.968 68.9978 22.7331C68.9978 19.4983 71.6101 16.886 74.8449 16.886C78.0798 16.886 80.6921 19.4983 80.6921 22.7331C80.6931 23.5013 80.5425 24.262 80.249 24.9719C79.9555 25.6817 79.5248 26.3267 78.9817 26.8698C78.4385 27.413 77.7935 27.8437 77.0837 28.1372C76.3739 28.4307 75.6131 28.5813 74.8449 28.5803V28.5803Z" fill="#fff"/>
</svg>
