<svg width="105" height="84" viewBox="0 0 105 84" fill="none" xmlns="http://www.w3.org/2000/svg">
<path d="M104.167 24V66.4063C104.167 70.7299 102.513 74.8897 99.5434 78.0325C96.574 81.1752 92.5146 83.0625 88.1979 83.3073L87.2396 83.3333H16.9271C12.6035 83.3336 8.4436 81.6794 5.30088 78.71C2.15816 75.7407 0.270826 71.6813 0.0260423 67.3646L0 66.4063V24L50.2708 50.3333C50.8301 50.6263 51.452 50.7793 52.0833 50.7793C52.7147 50.7793 53.3366 50.6263 53.8958 50.3333L104.167 24ZM16.9271 1.22943e-07H87.2396C91.4353 -0.000505285 95.4817 1.55727 98.594 4.37118C101.706 7.1851 103.662 11.0546 104.083 15.2292L52.0833 42.4688L0.0833335 15.2292C0.487101 11.2204 2.30755 7.48707 5.21745 4.70033C8.12734 1.91359 11.9358 0.256182 15.9583 0.0260424L16.9271 1.22943e-07H87.2396H16.9271Z" fill="#19323C"/>
</svg>
