<svg width="48" height="48" viewBox="0 0 48 48" fill="none" xmlns="http://www.w3.org/2000/svg">
<path d="M36 5.14598C32.475 2.99285 28.425 1.73067 24 1.73067V5.14598H36Z" fill="#ED4C5C"/>
<path d="M24 8.56129H40.2C38.925 7.29911 37.5 6.11118 36 5.14598H24V8.56129Z" fill="white"/>
<path d="M24 11.9766H42.975C42.15 10.7144 41.25 9.60072 40.275 8.56128H24V11.9766Z" fill="#ED4C5C"/>
<path d="M24 15.3919H44.775C44.25 14.204 43.65 13.016 42.975 11.9766H24V15.3919Z" fill="white"/>
<path d="M24 18.8072H45.9C45.6 17.6193 45.225 16.5056 44.775 15.3919H24V18.8072Z" fill="#ED4C5C"/>
<path d="M24 22.2968H46.425C46.35 21.1088 46.125 19.9951 45.9 18.8814H24V22.2968Z" fill="white"/>
<path d="M46.425 22.2968H24V24.0044H1.5C1.5 24.5984 1.5 25.1181 1.575 25.712H46.425C46.5 25.1181 46.5 24.5984 46.5 24.0044C46.5 23.4104 46.5 22.8165 46.425 22.2968Z" fill="#ED4C5C"/>
<path d="M2.09995 29.1274H45.9C46.2 28.0137 46.35 26.9 46.425 25.7121H1.57495C1.64995 26.8257 1.87495 28.0137 2.09995 29.1274Z" fill="white"/>
<path d="M3.2251 32.5427H44.7751C45.2251 31.429 45.6001 30.3153 45.9001 29.1274H2.1001C2.4001 30.3153 2.7751 31.429 3.2251 32.5427Z" fill="#ED4C5C"/>
<path d="M5.0251 35.958H42.9751C43.6501 34.8443 44.2501 33.7306 44.7751 32.5427H3.2251C3.7501 33.7306 4.3501 34.8443 5.0251 35.958Z" fill="white"/>
<path d="M7.7249 39.3733H40.2749C41.2499 38.3338 42.2249 37.1459 42.9749 35.958H5.0249C5.7749 37.2201 6.7499 38.3338 7.7249 39.3733Z" fill="#ED4C5C"/>
<path d="M11.9251 42.7886H36.0751C37.6501 41.8234 39.0001 40.6355 40.2751 39.3733H7.7251C9.0001 40.7097 10.4251 41.8234 11.9251 42.7886Z" fill="white"/>
<path d="M24 46.2781C28.425 46.2781 32.55 45.0159 36.075 42.7886H11.925C15.45 45.0159 19.575 46.2781 24 46.2781Z" fill="#ED4C5C"/>
<path d="M12 5.14598C10.425 6.11117 9 7.29911 7.725 8.56129C6.675 9.60073 5.775 10.7887 5.025 11.9766C4.35 13.0903 3.675 14.204 3.225 15.3919C2.775 16.5056 2.4 17.6193 2.1 18.8072C1.8 19.9209 1.65 21.0346 1.575 22.2225C1.5 22.8165 1.5 23.4104 1.5 24.0044H24V1.73067C19.575 1.73067 15.525 2.99285 12 5.14598Z" fill="#428BC1"/>
<path d="M18.75 2.47313L19.125 3.58682H20.25L19.35 4.32927L19.65 5.44296L18.75 4.77475L17.85 5.44296L18.15 4.32927L17.25 3.58682H18.375L18.75 2.47313Z" fill="white"/>
<path d="M21.75 6.92787L22.125 8.04156H23.25L22.35 8.78402L22.65 9.8977L21.75 9.22949L20.85 9.8977L21.15 8.78402L20.25 8.04156H21.375L21.75 6.92787Z" fill="white"/>
<path d="M15.75 6.92787L16.125 8.04156H17.25L16.35 8.78402L16.65 9.8977L15.75 9.22949L14.85 9.8977L15.15 8.78402L14.25 8.04156H15.375L15.75 6.92787Z" fill="white"/>
<path d="M18.75 11.3826L19.125 12.4963H20.25L19.35 13.2388L19.65 14.3525L18.75 13.6842L17.85 14.3525L18.15 13.2388L17.25 12.4963H18.375L18.75 11.3826Z" fill="white"/>
<path d="M12.75 11.3826L13.125 12.4963H14.25L13.35 13.2388L13.65 14.3525L12.75 13.6842L11.85 14.3525L12.15 13.2388L11.25 12.4963H12.375L12.75 11.3826Z" fill="white"/>
<path d="M6.75 11.3826L7.125 12.4963H8.25L7.35 13.2388L7.65 14.3525L6.75 13.6842L5.85 14.3525L6.15 13.2388L5.25 12.4963H6.375L6.75 11.3826Z" fill="white"/>
<path d="M21.75 15.8374L22.125 16.9511H23.25L22.35 17.6935L22.65 18.8072L21.75 18.139L20.85 18.8072L21.15 17.6935L20.25 16.9511H21.375L21.75 15.8374Z" fill="white"/>
<path d="M15.75 15.8374L16.125 16.9511H17.25L16.35 17.6935L16.65 18.8072L15.75 18.139L14.85 18.8072L15.15 17.6935L14.25 16.9511H15.375L15.75 15.8374Z" fill="white"/>
<path d="M9.75 15.8374L10.125 16.9511H11.25L10.35 17.6935L10.65 18.8072L9.75 18.139L8.85 18.8072L9.15 17.6935L8.25 16.9511H9.375L9.75 15.8374Z" fill="white"/>
<path d="M18.75 20.2921L19.125 21.4058H20.25L19.35 22.1483L19.65 23.2619L18.75 22.5937L17.85 23.2619L18.15 22.1483L17.25 21.4058H18.375L18.75 20.2921Z" fill="white"/>
<path d="M12.75 20.2921L13.125 21.4058H14.25L13.35 22.1483L13.65 23.2619L12.75 22.5937L11.85 23.2619L12.15 22.1483L11.25 21.4058H12.375L12.75 20.2921Z" fill="white"/>
<path d="M6.75 20.2921L7.125 21.4058H8.25L7.35 22.1483L7.65 23.2619L6.75 22.5937L5.85 23.2619L6.15 22.1483L5.25 21.4058H6.375L6.75 20.2921Z" fill="white"/>
<path d="M8.84995 9.8977L9.74995 9.22949L10.6499 9.8977L10.2749 8.78402L11.1749 8.04156H10.0499L9.74995 6.92787L9.37495 8.04156H8.32495L9.22495 8.70977L8.84995 9.8977Z" fill="white"/>
<path d="M2.85005 18.8072L3.75005 18.139L4.65005 18.8072L4.27505 17.6935L5.17505 16.9511H4.12505L3.75005 15.8374L3.37505 16.9511H2.62505C2.62505 17.0253 2.55005 17.0995 2.55005 17.1738L3.15005 17.6193L2.85005 18.8072Z" fill="white"/>
</svg>
