<svg width="44" height="44" viewBox="0 0 44 44" fill="none" xmlns="http://www.w3.org/2000/svg">
<path d="M0 38.3266C0 41.4602 2.54014 44 5.67342 44H38.3264C41.4602 44 44 41.4599 44 38.3266V5.67359C44 2.5398 41.4599 0 38.3266 0H5.67359C2.5398 0 0 2.54014 0 5.67342V38.3264V38.3266Z" fill="#563D7C"/>
<path d="M18.246 19.4628V13.2318H23.7307C24.2532 13.2318 24.7568 13.2753 25.2418 13.3624C25.7268 13.4494 26.156 13.6048 26.5291 13.8287C26.9021 14.0527 27.2006 14.3636 27.4246 14.7615C27.6484 15.1595 27.7604 15.6695 27.7604 16.2912C27.7604 17.4106 27.4246 18.2191 26.7529 18.7165C26.0814 19.2141 25.2232 19.4628 24.1784 19.4628H18.246ZM12.3879 8.67969V35.3203H25.2978C26.4918 35.3203 27.6547 35.1711 28.7865 34.8726C29.9183 34.574 30.9257 34.1139 31.8088 33.4921C32.6917 32.8702 33.3945 32.0679 33.9168 31.0855C34.4393 30.1029 34.7004 28.94 34.7004 27.5968C34.7004 25.9301 34.2962 24.5061 33.4878 23.3246C32.6793 22.143 31.4542 21.3159 29.8125 20.8433C31.0065 20.2713 31.9083 19.5374 32.5178 18.6419C33.1271 17.7464 33.4318 16.6272 33.4318 15.2838C33.4318 14.0401 33.2266 12.9955 32.8161 12.1497C32.4057 11.304 31.8274 10.6262 31.0811 10.1162C30.335 9.60627 29.4395 9.23931 28.3947 9.01553C27.35 8.79158 26.1933 8.67969 24.9247 8.67969H12.3879ZM18.246 30.7682V23.4551H24.6261C25.8947 23.4551 26.9146 23.7473 27.6858 24.332C28.4569 24.9165 28.8426 25.8928 28.8426 27.2609C28.8426 27.9575 28.7243 28.5295 28.488 28.9773C28.2517 29.425 27.9346 29.7796 27.5365 30.0407C27.1386 30.3019 26.6783 30.4884 26.156 30.6005C25.6335 30.7122 25.0864 30.7682 24.5142 30.7682H18.246Z" fill="white"/>
</svg>
