<svg width="50" height="50" viewBox="0 0 50 50" fill="none" xmlns="http://www.w3.org/2000/svg">
<g clip-path="url(#clip0)">
<path d="M50 38.725C49.2723 39.0002 48.469 38.9996 47.7417 38.7233C47.0145 38.447 46.4134 37.914 46.0521 37.225L38.8646 27.2854L37.8229 25.8958L29.4834 37.2375C29.1437 37.8976 28.5753 38.4114 27.8844 38.6829C27.1935 38.9544 26.4273 38.9649 25.7292 38.7125L36.475 24.2958L26.4792 11.2729C27.1979 11.0139 27.984 11.0105 28.7049 11.2632C29.4259 11.5159 30.0378 12.0094 30.4375 12.6604L37.8875 22.7229L45.3792 12.7021C45.7214 12.0537 46.29 11.5537 46.9768 11.2972C47.6635 11.0406 48.4207 11.0453 49.1042 11.3104L45.225 16.4583L39.9709 23.2979C39.8249 23.4281 39.7082 23.5876 39.6282 23.766C39.5483 23.9445 39.507 24.1378 39.507 24.3333C39.507 24.5289 39.5483 24.7222 39.6282 24.9006C39.7082 25.0791 39.8249 25.2386 39.9709 25.3688L49.9792 38.7271L50 38.725ZM0.00419166 24.1167L0.879192 19.7938C3.28336 11.2458 13.0834 7.68959 19.825 12.9813C23.7729 16.0833 24.7584 20.475 24.5646 25.425H2.32503C1.96461 34.2646 8.34377 39.6021 16.5 36.875C17.8222 36.3991 19.0057 35.6026 19.9445 34.5569C20.8833 33.5112 21.548 32.249 21.8792 30.8833C22.3104 29.4958 23.0209 29.2583 24.325 29.6583C24.1077 31.3508 23.5094 32.9719 22.5752 34.3998C21.6409 35.8277 20.3951 37.0252 18.9313 37.9021C16.5134 39.2246 13.7392 39.7488 11.0055 39.3997C8.27173 39.0506 5.71836 37.8461 3.71044 35.9583C1.72509 33.7237 0.525184 30.901 0.293775 27.9208C0.293775 27.4313 0.127108 26.9729 0.0146083 26.5333C0.00446672 25.7285 -0.000394494 24.9236 2.49922e-05 24.1188L0.00419166 24.1167ZM2.35211 23.5208H22.4646C22.3396 17.1125 18.2959 12.5667 12.9021 12.525C6.89794 12.4417 2.60211 16.8875 2.33752 23.4917L2.35211 23.5208Z" fill="#ECECEC"/>
</g>
<defs>
<clipPath id="clip0">
<rect width="50" height="50" fill="white"/>
</clipPath>
</defs>
</svg>
