<svg width="21" height="30" viewBox="0 0 21 30" fill="none" xmlns="http://www.w3.org/2000/svg">
<g clip-path="url(#clip0)">
<path d="M5.00073 30.0001C7.76073 30.0001 10.0007 27.7601 10.0007 25.0001V20.0001H5.00073C2.24073 20.0001 0.000732422 22.2401 0.000732422 25.0001C0.000732422 27.7601 2.24073 30.0001 5.00073 30.0001Z" fill="#0ACF83"/>
<path d="M0.000732422 15C0.000732422 12.24 2.24073 10 5.00073 10H10.0007V20H5.00073C2.24073 20 0.000732422 17.76 0.000732422 15Z" fill="#A259FF"/>
<path d="M0.000732422 5C0.000732422 2.24 2.24073 0 5.00073 0H10.0007V10H5.00073C2.24073 10 0.000732422 7.76 0.000732422 5Z" fill="#F24E1E"/>
<path d="M10.001 0H15.001C17.761 0 20.001 2.24 20.001 5C20.001 7.76 17.761 10 15.001 10H10.001V0Z" fill="#FF7262"/>
<path d="M20.001 15C20.001 17.76 17.761 20 15.001 20C12.241 20 10.001 17.76 10.001 15C10.001 12.24 12.241 10 15.001 10C17.761 10 20.001 12.24 20.001 15Z" fill="#1ABCFE"/>
</g>
<defs>
<clipPath id="clip0">
<rect width="20.0016" height="30" fill="white"/>
</clipPath>
</defs>
</svg>
