<svg width="31" height="32" viewBox="0 0 31 32" fill="none" xmlns="http://www.w3.org/2000/svg">
<path d="M21.3419 31V25.4785C21.3964 24.7981 21.3028 24.1142 21.0673 23.4722C20.8318 22.8301 20.4598 22.2446 19.9761 21.7547C24.5385 21.2553 29.3333 19.5575 29.3333 11.7674C29.333 9.7754 28.5526 7.85981 27.1538 6.41708C27.8162 4.67431 27.7694 2.74797 27.0231 1.03823C27.0231 1.03823 25.3085 0.538864 21.3419 3.14982C18.0116 2.26355 14.5012 2.26355 11.1709 3.14982C7.20427 0.538864 5.48974 1.03823 5.48974 1.03823C4.74345 2.74797 4.69662 4.67431 5.35897 6.41708C3.94976 7.87051 3.16862 9.80342 3.17949 11.8102C3.17949 19.5432 7.97436 21.241 12.5368 21.7975C12.0587 22.2825 11.69 22.861 11.4547 23.4952C11.2194 24.1294 11.1227 24.8051 11.1709 25.4785V31M11.1709 26.7197C3.90598 28.8599 3.90598 23.1529 1 22.4395L11.1709 26.7197Z" stroke="white" stroke-width="2" stroke-linecap="round" stroke-linejoin="round"/>
</svg>
