<svg width="20" height="44" viewBox="0 0 20 44" fill="none" xmlns="http://www.w3.org/2000/svg">
<path d="M10.8659 44.0001L9.68578 43.6088C9.68578 43.6088 9.84292 37.6373 7.6822 37.2178C6.26792 35.5709 7.8912 -33.0896 13.0612 36.9836C12.0803 37.4812 11.3297 38.3387 10.9665 39.3769C10.7718 40.9102 10.7381 42.4597 10.8659 44.0001Z" fill="url(#paint0_linear)"/>
<path d="M11.504 38.2312C14.6462 35.8659 17.0526 32.6573 18.4435 28.9785C19.8343 25.2996 20.1526 21.3016 19.3612 17.4491C17.0512 7.25834 11.581 3.90806 10.9917 2.62891C10.4833 1.8324 10.0493 0.990749 9.69531 0.114624L10.1306 28.5088C10.1306 28.5088 9.2286 37.1862 11.504 38.2312Z" fill="url(#paint1_linear)"/>
<path d="M9.08567 38.6085C9.08567 38.6085 -0.533055 32.0572 0.0232312 20.4679C0.0751239 16.974 0.87621 13.532 2.37238 10.3743C3.86855 7.21659 6.02496 4.41673 8.69595 2.16386C9.00809 1.89867 9.25608 1.56621 9.42128 1.19143C9.58649 0.81665 9.66462 0.409307 9.64981 0C10.2485 1.28857 10.1511 19.239 10.214 21.3384C10.4575 29.5052 9.75981 37.0669 9.08567 38.6085Z" fill="url(#paint2_linear)"/>
<defs>
<linearGradient id="paint0_linear" x1="2.93278" y1="22.3965" x2="16.4969" y2="26.9994" gradientUnits="userSpaceOnUse">
<stop offset="0.231" stop-color="#999875"/>
<stop offset="0.563" stop-color="#9B9977"/>
<stop offset="0.683" stop-color="#A09F7E"/>
<stop offset="0.768" stop-color="#A9A889"/>
<stop offset="0.837" stop-color="#B7B69A"/>
<stop offset="0.896" stop-color="#C9C7B0"/>
<stop offset="0.948" stop-color="#DEDDCB"/>
<stop offset="0.994" stop-color="#F8F6EB"/>
<stop offset="1" stop-color="#FBF9EF"/>
</linearGradient>
<linearGradient id="paint1_linear" x1="7.90694" y1="-0.0882696" x2="13.9036" y2="37.3572" gradientUnits="userSpaceOnUse">
<stop stop-color="#48A547"/>
<stop offset="1" stop-color="#3F9143"/>
</linearGradient>
<linearGradient id="paint2_linear" x1="-0.80417" y1="21.6151" x2="15.2882" y2="16.2257" gradientUnits="userSpaceOnUse">
<stop stop-color="#41A247"/>
<stop offset="0.352" stop-color="#4BA74B"/>
<stop offset="0.956" stop-color="#67B554"/>
<stop offset="1" stop-color="#69B655"/>
</linearGradient>
</defs>
</svg>
