<svg width="45" height="44" viewBox="0 0 45 44" fill="none" xmlns="http://www.w3.org/2000/svg">
<g clip-path="url(#clip0)">
<path d="M21.9011 0.0124512C10.7144 0.0124512 11.4128 4.86367 11.4128 4.86367L11.4253 9.88968H22.1005V11.3986H7.18522C7.18522 11.3986 0.0268555 10.5868 0.0268555 21.8741C0.0268555 33.1617 6.27486 32.7614 6.27486 32.7614H10.0036V27.5235C10.0036 27.5235 9.80262 21.2755 16.1519 21.2755H26.7399C26.7399 21.2755 32.6885 21.3716 32.6885 15.5263V5.86152C32.6885 5.86152 33.592 0.0124512 21.9011 0.0124512ZM16.0147 3.39234C16.267 3.39211 16.5168 3.44163 16.7499 3.53807C16.983 3.6345 17.1948 3.77595 17.3732 3.95433C17.5516 4.13271 17.693 4.34451 17.7895 4.57761C17.8859 4.81072 17.9354 5.06055 17.9352 5.31281C17.9354 5.56508 17.8859 5.81491 17.7895 6.04801C17.693 6.28112 17.5516 6.49292 17.3732 6.6713C17.1948 6.84967 16.983 6.99113 16.7499 7.08756C16.5168 7.18399 16.267 7.23351 16.0147 7.23328C15.7625 7.23351 15.5126 7.18399 15.2795 7.08756C15.0464 6.99113 14.8346 6.84967 14.6562 6.6713C14.4779 6.49292 14.3364 6.28112 14.24 6.04801C14.1436 5.81491 14.094 5.56508 14.0943 5.31281C14.094 5.06055 14.1436 4.81072 14.24 4.57761C14.3364 4.34451 14.4779 4.13271 14.6562 3.95433C14.8346 3.77595 15.0464 3.6345 15.2795 3.53807C15.5126 3.44163 15.7625 3.39211 16.0147 3.39234Z" fill="url(#paint0_linear)"/>
<path d="M22.2183 43.8492C33.405 43.8492 32.7065 38.998 32.7065 38.998L32.6941 33.9722H22.0187V32.4632H36.934C36.934 32.4632 44.0924 33.2751 44.0924 21.9874C44.0924 10.7 37.8444 11.1003 37.8444 11.1003H34.1156V16.338C34.1156 16.338 34.3166 22.586 27.9673 22.586H17.3794C17.3794 22.586 11.4307 22.4899 11.4307 28.3353V38.0003C11.4307 38.0003 10.5274 43.8492 22.2182 43.8492H22.2183ZM28.1047 40.4697C27.8524 40.4699 27.6026 40.4204 27.3695 40.3239C27.1364 40.2275 26.9246 40.0861 26.7462 39.9077C26.5678 39.7293 26.4263 39.5175 26.3299 39.2844C26.2335 39.0513 26.184 38.8015 26.1842 38.5492C26.1839 38.2969 26.2334 38.0471 26.3299 37.8139C26.4263 37.5808 26.5677 37.369 26.7461 37.1906C26.9245 37.0122 27.1363 36.8707 27.3694 36.7743C27.6025 36.6778 27.8524 36.6283 28.1047 36.6285C28.3569 36.6283 28.6068 36.6778 28.8399 36.7743C29.073 36.8707 29.2848 37.0122 29.4631 37.1905C29.6415 37.3689 29.783 37.5807 29.8794 37.8138C29.9758 38.0469 30.0254 38.2968 30.0251 38.549C30.0254 38.8013 29.9758 39.0511 29.8794 39.2842C29.783 39.5173 29.6415 39.7291 29.4631 39.9075C29.2848 40.0859 29.073 40.2273 28.8399 40.3238C28.6068 40.4202 28.3569 40.4697 28.1047 40.4695V40.4697Z" fill="url(#paint1_linear)"/>
</g>
<defs>
<linearGradient id="paint0_linear" x1="4.26157" y1="3.95531" x2="26.0993" y2="25.5752" gradientUnits="userSpaceOnUse">
<stop stop-color="#387EB8"/>
<stop offset="1" stop-color="#366994"/>
</linearGradient>
<linearGradient id="paint1_linear" x1="17.6652" y1="17.8383" x2="41.1164" y2="40.0075" gradientUnits="userSpaceOnUse">
<stop stop-color="#FFE052"/>
<stop offset="1" stop-color="#FFC331"/>
</linearGradient>
<clipPath id="clip0">
<rect width="44.176" height="44" fill="white"/>
</clipPath>
</defs>
</svg>
